<svg xmlns="http://www.w3.org/2000/svg" viewBox="0 0 200 200" width="100%" height="100%" fill="none">
  <defs>
    <linearGradient id="aiLogoGrad" x1="0%" y1="0%" x2="100%" y2="100%">
      <stop offset="0%" stop-color="#6B1D9F" />
      <stop offset="35%" stop-color="#7B22BC" />
      <stop offset="70%" stop-color="#9C44D4" />
      <stop offset="100%" stop-color="#BC6EEB" />
    </linearGradient>
  </defs>

  <!-- Outer Acoustic Iris / Sunburst Corona -->
  <g stroke="url(#aiLogoGrad)" stroke-width="4.2" stroke-linecap="round">
  <line x1="100.00" y1="51.00" x2="100.00" y2="33.50" />
  <line x1="107.30" y1="51.55" x2="110.09" y2="33.06" />
  <line x1="114.44" y1="53.18" x2="120.23" y2="34.43" />
  <line x1="121.26" y1="55.85" x2="129.94" y2="37.82" />
  <line x1="127.60" y1="59.51" x2="138.76" y2="43.14" />
  <line x1="133.33" y1="64.08" x2="146.38" y2="50.02" />
  <line x1="138.31" y1="69.45" x2="152.75" y2="57.94" />
  <line x1="142.44" y1="75.50" x2="158.04" y2="66.49" />
  <line x1="145.61" y1="82.10" x2="162.47" y2="75.48" />
  <line x1="147.77" y1="89.10" x2="166.09" y2="84.92" />
  <line x1="148.86" y1="96.34" x2="168.70" y2="94.85" />
  <line x1="148.86" y1="103.66" x2="169.88" y2="105.24" />
  <line x1="147.77" y1="110.90" x2="169.14" y2="115.78" />
  <line x1="145.61" y1="117.90" x2="166.18" y2="125.97" />
  <line x1="142.44" y1="124.50" x2="161.04" y2="135.24" />
  <line x1="138.31" y1="130.55" x2="154.10" y2="143.15" />
  <line x1="133.33" y1="135.92" x2="145.97" y2="149.55" />
  <line x1="127.60" y1="140.49" x2="137.23" y2="154.61" />
  <line x1="121.26" y1="144.15" x2="128.25" y2="158.67" />
  <line x1="114.44" y1="146.82" x2="119.13" y2="162.02" />
  <line x1="107.30" y1="148.45" x2="109.75" y2="164.71" />
  <line x1="100.00" y1="149.00" x2="100.00" y2="166.50" />
  <line x1="92.70" y1="148.45" x2="89.91" y2="166.94" />
  <line x1="85.56" y1="146.82" x2="79.77" y2="165.57" />
  <line x1="78.74" y1="144.15" x2="70.06" y2="162.18" />
  <line x1="72.40" y1="140.49" x2="61.24" y2="156.86" />
  <line x1="66.67" y1="135.92" x2="53.62" y2="149.98" />
  <line x1="61.69" y1="130.55" x2="47.25" y2="142.06" />
  <line x1="57.56" y1="124.50" x2="41.96" y2="133.51" />
  <line x1="54.39" y1="117.90" x2="37.53" y2="124.52" />
  <line x1="52.23" y1="110.90" x2="33.91" y2="115.08" />
  <line x1="51.14" y1="103.66" x2="31.30" y2="105.15" />
  <line x1="51.14" y1="96.34" x2="30.12" y2="94.76" />
  <line x1="52.23" y1="89.10" x2="30.86" y2="84.22" />
  <line x1="54.39" y1="82.10" x2="33.82" y2="74.03" />
  <line x1="57.56" y1="75.50" x2="38.96" y2="64.76" />
  <line x1="61.69" y1="69.45" x2="45.90" y2="56.85" />
  <line x1="66.67" y1="64.08" x2="54.03" y2="50.45" />
  <line x1="72.40" y1="59.51" x2="62.77" y2="45.39" />
  <line x1="78.74" y1="55.85" x2="71.75" y2="41.33" />
  <line x1="85.56" y1="53.18" x2="80.87" y2="37.98" />
  <line x1="92.70" y1="51.55" x2="90.25" y2="35.29" />
  </g>

  <!-- Center Core Dot -->
  <circle cx="100" cy="100" r="24" fill="#761EAF" />
</svg>